<svg width="300" height="300" viewBox="0 0 300 300" fill="none" xmlns="http://www.w3.org/2000/svg">
<path fill-rule="evenodd" clip-rule="evenodd" d="M50 15.625C31.0152 15.625 15.625 31.0152 15.625 50V250C15.625 268.985 31.0152 284.375 50 284.375H118.75H181.25C200.235 284.375 215.625 268.985 215.625 250V106.25V104.748C215.625 95.112 211.581 85.9188 204.478 79.4079L144.753 24.6603C138.414 18.8489 130.126 15.625 121.525 15.625H50Z" fill="#ECEFF1"/>
<path fill-rule="evenodd" clip-rule="evenodd" d="M215.587 103.125C215.16 94.0856 211.181 85.5523 204.478 79.4079L144.753 24.6603C138.5 18.9276 130.35 15.7129 121.875 15.6268V31.2501V68.75C121.875 87.7348 137.265 103.125 156.25 103.125H200H215.587Z" fill="#BF7776"/>
<path fill-rule="evenodd" clip-rule="evenodd" d="M206.25 128.125C163.103 128.125 128.125 163.103 128.125 206.25C128.125 249.397 163.103 284.375 206.25 284.375C249.397 284.375 284.375 249.397 284.375 206.25C284.375 163.103 249.397 128.125 206.25 128.125Z" fill="#BF7776"/>
<path fill-rule="evenodd" clip-rule="evenodd" d="M206.25 165.625C211.428 165.625 215.625 169.822 215.625 175V237.5C215.625 242.678 211.428 246.875 206.25 246.875C201.072 246.875 196.875 242.678 196.875 237.5V175C196.875 169.822 201.072 165.625 206.25 165.625Z" fill="#F9F9F9"/>
<path fill-rule="evenodd" clip-rule="evenodd" d="M165.625 206.25C165.625 201.072 169.822 196.875 175 196.875H237.5C242.678 196.875 246.875 201.072 246.875 206.25C246.875 211.428 242.678 215.625 237.5 215.625H175C169.822 215.625 165.625 211.428 165.625 206.25Z" fill="#F9F9F9"/>
</svg>
