<svg width="300" height="300" viewBox="0 0 300 300" fill="none" xmlns="http://www.w3.org/2000/svg">
<path fill-rule="evenodd" clip-rule="evenodd" d="M75 15.625C56.0152 15.625 40.625 31.0152 40.625 50V250C40.625 268.985 56.0152 284.375 75 284.375H225C243.985 284.375 259.375 268.985 259.375 250V111.498C259.375 101.463 254.99 91.9296 247.371 85.3989L175.623 23.9006C169.393 18.5604 161.458 15.625 153.252 15.625H75Z" fill="#ECEFF1"/>
<path fill-rule="evenodd" clip-rule="evenodd" d="M259.309 109.375C258.738 100.128 254.451 91.4671 247.371 85.3989L175.623 23.9006C169.393 18.5604 161.458 15.625 153.252 15.625H153.125V31.25V75C153.125 93.9848 168.515 109.375 187.5 109.375H243.75H259.309Z" fill="#BF7776"/>
<path fill-rule="evenodd" clip-rule="evenodd" d="M181.354 130.607C177.656 127.198 171.927 127.314 168.371 130.871L100.693 198.549C94.2466 204.995 90.625 213.739 90.625 222.855V237.5C90.625 242.678 94.8223 246.875 100 246.875H114.456C123.726 246.875 132.603 243.131 139.073 236.492L206.714 167.09C208.481 165.277 209.439 162.827 209.372 160.296C209.304 157.766 208.216 155.37 206.354 153.654L181.354 130.607Z" fill="#BF7776"/>
</svg>
